# xmcd
#
# Track frame offsets: 
#        150
#        12833
#        25862
#        39093
#        50676
#        64078
#        77811
#        95578
#        108908
#        126179
#        141467
#        154528
#        167090
#        178773
#        190858
#
# Disc length: 2744 seconds
#
# Revision: 6
# Processed by: cddbd v1.5.2PL0 Copyright (c) Steve Scherf et al.
# Submitted via: ExactAudioCopy v0.99pb4
#
DISCID=c20ab60f
DTITLE=Various Artist - Classic Country: Great Duets  [CD2)
DYEAR=2004
DGENRE=Country
TTITLE0=Dolly Parton and Porter Wagoner - Please Don't Stop Loving Me
TTITLE1=Conway Twitty and Loretta Lynn - Feelings
TTITLE2=George Jones and Tammy Wynette - We're Gonna Hold On
TTITLE3=Buck Owens and Rose Maddox - Loose Talk
TTITLE4=Johnny Cash and June Carter Cash - If I Were A Carpenter
TTITLE5=Jim Ed Brown and Helen Cornelius - I Don't Want To Have To Marry
TTITLE5=You
TTITLE6=Waylon Jennings and Jessi Colter - Suspicious Minds
TTITLE7=Carl Butler and Pearl Butler - Don't Let Me Cross Over
TTITLE8=Kenny Rogers and Sheena Easton - We've Got Tonight
TTITLE9=Crystal Gayle and Gary Morris - Makin Up For Lost Time
TTITLE10=David Houston and Tammy Wynette - My Elusive Dreams
TTITLE11=Bill Anderson and Jan Howard - For Loving You
TTITLE12=Roy Drusky and Priscilla Mitchell - Yes, Mr. Peters
TTITLE13=George Jones and Melba Montgomery - We Must Have Been Out Of Ou
TTITLE13=r Minds
TTITLE14=Dolly Parton and Vince Gill - I Will Always Love You
EXTD=
EXTT0=
EXTT1=
EXTT2=
EXTT3=
EXTT4=
EXTT5=
EXTT6=
EXTT7=
EXTT8=
EXTT9=
EXTT10=
EXTT11=
EXTT12=
EXTT13=
EXTT14=
PLAYORDER=
